<svg width="280" height="80" viewBox="0 0 280 80" fill="none" xmlns="http://www.w3.org/2000/svg">
<rect width="280" height="80" fill="#011222"/>
<path d="M50.5 40L37.5 17H58.5L73 40.5L57 64L37.5 63L50.5 40Z" fill="white"/>
<ellipse cx="30" cy="40" rx="10" ry="9.5" fill="white"/>
<path d="M93.71 30.67C95.634 30.67 97.3153 31.06 98.754 31.84C100.21 32.6027 101.328 33.6773 102.108 35.064C102.888 36.4507 103.278 38.0367 103.278 39.822C103.278 41.59 102.879 43.1673 102.082 44.554C101.302 45.9407 100.184 47.0327 98.728 47.83C97.2893 48.61 95.6167 49 93.71 49H86.456V30.67H93.71ZM93.32 44.502C94.8107 44.502 95.9807 44.0947 96.83 43.28C97.6793 42.4653 98.104 41.3127 98.104 39.822C98.104 38.314 97.6793 37.1527 96.83 36.338C95.9807 35.506 94.8107 35.09 93.32 35.09H91.552V44.502H93.32ZM117.171 46.01H110.671L109.683 49H104.327L111.009 30.67H116.885L123.541 49H118.159L117.171 46.01ZM115.897 42.11L113.921 36.182L111.971 42.11H115.897ZM132.118 49.182C129.986 49.182 128.235 48.6793 126.866 47.674C125.497 46.6513 124.76 45.1953 124.656 43.306H130.09C130.142 43.9473 130.333 44.4153 130.662 44.71C130.991 45.0047 131.416 45.152 131.936 45.152C132.404 45.152 132.785 45.0393 133.08 44.814C133.392 44.5713 133.548 44.242 133.548 43.826C133.548 43.2887 133.297 42.8727 132.794 42.578C132.291 42.2833 131.477 41.954 130.35 41.59C129.154 41.1913 128.183 40.81 127.438 40.446C126.71 40.0647 126.069 39.5187 125.514 38.808C124.977 38.08 124.708 37.1353 124.708 35.974C124.708 34.7953 125.003 33.79 125.592 32.958C126.181 32.1087 126.996 31.4673 128.036 31.034C129.076 30.6007 130.255 30.384 131.572 30.384C133.704 30.384 135.403 30.8867 136.668 31.892C137.951 32.88 138.635 34.2753 138.722 36.078H133.184C133.167 35.5233 132.993 35.1073 132.664 34.83C132.352 34.5527 131.945 34.414 131.442 34.414C131.061 34.414 130.749 34.5267 130.506 34.752C130.263 34.9773 130.142 35.298 130.142 35.714C130.142 36.0607 130.272 36.364 130.532 36.624C130.809 36.8667 131.147 37.0833 131.546 37.274C131.945 37.4473 132.534 37.6727 133.314 37.95C134.475 38.3487 135.429 38.7473 136.174 39.146C136.937 39.5273 137.587 40.0733 138.124 40.784C138.679 41.4773 138.956 42.3613 138.956 43.436C138.956 44.528 138.679 45.5073 138.124 46.374C137.587 47.2407 136.798 47.9253 135.758 48.428C134.735 48.9307 133.522 49.182 132.118 49.182ZM157.731 30.67V49H152.635V41.642H146.421V49H141.325V30.67H146.421V37.56H152.635V30.67H157.731ZM186.465 30.67L181.967 49H175.701L173.179 37.768L170.605 49H164.339L159.893 30.67H165.405L167.537 43.202L170.423 30.67H176.013L178.821 43.098L180.953 30.67H186.465ZM197.416 49.182C195.7 49.182 194.123 48.7833 192.684 47.986C191.245 47.1713 190.101 46.0533 189.252 44.632C188.42 43.1933 188.004 41.5727 188.004 39.77C188.004 37.9673 188.42 36.3553 189.252 34.934C190.101 33.4953 191.245 32.3773 192.684 31.58C194.123 30.7827 195.7 30.384 197.416 30.384C199.149 30.384 200.727 30.7827 202.148 31.58C203.587 32.3773 204.722 33.4953 205.554 34.934C206.386 36.3553 206.802 37.9673 206.802 39.77C206.802 41.5727 206.386 43.1933 205.554 44.632C204.722 46.0533 203.587 47.1713 202.148 47.986C200.709 48.7833 199.132 49.182 197.416 49.182ZM197.416 44.45C198.716 44.45 199.739 44.0253 200.484 43.176C201.247 42.3267 201.628 41.1913 201.628 39.77C201.628 38.314 201.247 37.17 200.484 36.338C199.739 35.4887 198.716 35.064 197.416 35.064C196.099 35.064 195.067 35.4887 194.322 36.338C193.577 37.17 193.204 38.314 193.204 39.77C193.204 41.2087 193.577 42.3527 194.322 43.202C195.067 44.034 196.099 44.45 197.416 44.45ZM218.375 49L214.735 42.24H214.189V49H209.093V30.67H217.127C218.6 30.67 219.848 30.93 220.871 31.45C221.893 31.9527 222.665 32.6547 223.185 33.556C223.705 34.44 223.965 35.4367 223.965 36.546C223.965 37.794 223.618 38.8947 222.925 39.848C222.249 40.784 221.252 41.4513 219.935 41.85L224.069 49H218.375ZM214.189 38.756H216.711C217.404 38.756 217.924 38.5913 218.271 38.262C218.617 37.9327 218.791 37.456 218.791 36.832C218.791 36.2427 218.609 35.7833 218.245 35.454C217.898 35.1073 217.387 34.934 216.711 34.934H214.189V38.756ZM237.124 49L231.378 40.966V49H226.282V30.67H231.378V38.574L237.072 30.67H242.948L236.214 39.562L243.286 49H237.124ZM252.063 49.182C249.931 49.182 248.181 48.6793 246.811 47.674C245.442 46.6513 244.705 45.1953 244.601 43.306H250.035C250.087 43.9473 250.278 44.4153 250.607 44.71C250.937 45.0047 251.361 45.152 251.881 45.152C252.349 45.152 252.731 45.0393 253.025 44.814C253.337 44.5713 253.493 44.242 253.493 43.826C253.493 43.2887 253.242 42.8727 252.739 42.578C252.237 42.2833 251.422 41.954 250.295 41.59C249.099 41.1913 248.129 40.81 247.383 40.446C246.655 40.0647 246.014 39.5187 245.459 38.808C244.922 38.08 244.653 37.1353 244.653 35.974C244.653 34.7953 244.948 33.79 245.537 32.958C246.127 32.1087 246.941 31.4673 247.981 31.034C249.021 30.6007 250.2 30.384 251.517 30.384C253.649 30.384 255.348 30.8867 256.613 31.892C257.896 32.88 258.581 34.2753 258.667 36.078H253.129C253.112 35.5233 252.939 35.1073 252.609 34.83C252.297 34.5527 251.89 34.414 251.387 34.414C251.006 34.414 250.694 34.5267 250.451 34.752C250.209 34.9773 250.087 35.298 250.087 35.714C250.087 36.0607 250.217 36.364 250.477 36.624C250.755 36.8667 251.093 37.0833 251.491 37.274C251.89 37.4473 252.479 37.6727 253.259 37.95C254.421 38.3487 255.374 38.7473 256.119 39.146C256.882 39.5273 257.532 40.0733 258.069 40.784C258.624 41.4773 258.901 42.3613 258.901 43.436C258.901 44.528 258.624 45.5073 258.069 46.374C257.532 47.2407 256.743 47.9253 255.703 48.428C254.681 48.9307 253.467 49.182 252.063 49.182Z" fill="white"/>
</svg>
